<svg id="Layer_1" data-name="Layer 1" xmlns="http://www.w3.org/2000/svg" viewBox="0 0 512 512"><defs><style>.cls-1{fill:#fcefd6;opacity:0;}</style></defs><title>Artboard 1</title><rect class="cls-1" width="512" height="512"/><path d="M214.21,62C203.55,51.78,198.1,37.1,195.44,19.62q.13-10.16.25-19.62H162.48q.12,9.45.25,19.62C160.07,37.1,154.62,51.78,144,62c-28.56,27.35-79.1,61.13-76.9,106.17s23.11,220.24,24.17,228.4c4.39,33.78,13.18,33.78,17.57,0,1.48-11.32,5.5-77.17,6.6-106.16,4.39-115.81,40.68-107.74,46.13,0,2.14,42.27,5.34,87.67,8.53,104.81.07.58.13,1,.19,1.35,3.31,16.16,6.07,24.19,8.83,24.13s5.51-8,8.82-24.13c.06-.31.13-.77.19-1.35,3.19-17.14,6.39-62.54,8.53-104.81,5.45-107.74,41.74-115.81,46.14,0,1.1,29,5.12,94.84,6.59,106.16,4.39,33.78,13.18,33.78,17.58,0,1.06-8.16,22-183.37,24.16-228.4S242.77,89.32,214.21,62Z"/><path d="M304.76,512h35.87c1.13-50.5,4.52-71.5,26.82-83,29.8-15.34,79.48-25.56,77.49-141.42C443,174.16,365.46,107,321.74,107c-8.54,0-18.3,2.58-28.48,7.55,12.2,18.16,17.72,36.07,16.82,54.5C307.84,215,286.9,390.36,285.78,399c-1.26,9.68-2.88,17.19-4.94,22.95a39.58,39.58,0,0,1-3.2,6.92l.3.16C300.24,440.5,303.63,461.5,304.76,512Zm42.33-295.13q.23-37.87.22-40.87c15.81,1.79,40.32,47.58,46.11,72.24,3.12,13.25,7.58,26.87,7.58,45.58q0,29.15-5.29,48.49t-15.35,30.25a29.76,29.76,0,0,1-13.85,9A52.75,52.75,0,0,1,351.27,384H347q0-3.81-.06-31.33T346.88,305C346.88,290.28,347,242.12,347.09,216.87Z"/></svg>